<?xml version="1.0" encoding="utf-8"?>
<!-- Generator: Adobe Illustrator 16.0.0, SVG Export Plug-In . SVG Version: 6.00 Build 0)  -->
<!DOCTYPE svg PUBLIC "-//W3C//DTD SVG 1.1//EN" "http://www.w3.org/Graphics/SVG/1.1/DTD/svg11.dtd">
<svg version="1.1" id="Layer_1" xmlns="http://www.w3.org/2000/svg" xmlns:xlink="http://www.w3.org/1999/xlink" x="0px" y="0px"
	 width="576px" height="576px" viewBox="0 0 576 576" enable-background="new 0 0 576 576" xml:space="preserve">
<circle display="none" fill="none" stroke="#000000" stroke-width="11" stroke-miterlimit="10" cx="279.886" cy="261.823" r="168.823"/>
<g>
	<path d="M341.261,149.894L287.998,22.579l-53.259,127.315l43.421,48.384l0,0v74.692l19.679,19.68v-94.373l0,0l43.119-48.055
		L341.261,149.894z M326.341,147.616l-37.646,40.634V57.611L326.341,147.616z"/>
	<polygon points="278.16,310.064 297.839,329.75 297.839,306.342 278.16,286.667 	"/>
	<polygon points="278.16,470.258 278.16,517.875 278.16,553.422 297.839,553.422 297.839,517.875 297.839,470.258 297.839,381.123 
		278.16,361.443 	"/>
	<polygon points="278.16,347.75 297.839,367.43 297.839,343.443 278.16,323.76 	"/>
</g>
</svg>
